<svg xmlns="http://www.w3.org/2000/svg" viewBox="0 0 300 300"><path d="M45 300H0V0h300v300h-49.87c-.18-5.78.11-11.63-.62-17.34-4.29-33.7-18.14-62.47-44.94-84.12-31.41-25.36-74.09-27.14-107.49-4.65-24.63 16.58-39.45 40.11-47.41 68.26C46.18 274.48 43.49 287 45 300zm163.63-192.88c0-14.16-2.43-23.78-8.8-35.43-19.25-35.16-63.68-40.89-91-11.71-25.36 27.12-23 73.45 5.12 99 20.06 18.24 52.05 18.24 72.13 0 15.39-13.89 22.66-31.28 22.55-51.86z" fill="#048b9a"/><path d="M45 300c-1.52-13 1.17-25.52 4.66-37.85 8-28.14 22.78-51.68 47.41-68.26 33.4-22.49 76.08-20.71 107.49 4.65 26.8 21.65 40.65 50.42 44.94 84.12.73 5.71.44 11.56.62 17.34z" fill="#fff"/><path d="M208.63 107.12c.11 20.58-7.16 38-22.51 51.88-20.12 18.21-52.07 18.21-72.12 0-28.08-25.54-30.48-71.87-5.12-99 27.28-29.18 71.71-23.45 91 11.71 6.32 11.63 8.7 21.29 8.75 35.41z" fill="#fff"/></svg>